<?xml version="1.0" encoding="UTF-8" standalone="no"?>
<!-- Created with Inkscape (http://www.inkscape.org/) -->

<svg
   width="210mm"
   height="297mm"
   viewBox="0 0 210 297"
   version="1.1"
   id="svg1"
   xml:space="preserve"
   inkscape:version="1.4.2 (f4327f4, 2025-05-13)"
   sodipodi:docname="вектор_Лиса.svg"
   inkscape:export-filename="рисунок.png"
   inkscape:export-xdpi="96"
   inkscape:export-ydpi="96"
   xmlns:inkscape="http://www.inkscape.org/namespaces/inkscape"
   xmlns:sodipodi="http://sodipodi.sourceforge.net/DTD/sodipodi-0.dtd"
   xmlns="http://www.w3.org/2000/svg"
   xmlns:svg="http://www.w3.org/2000/svg"><sodipodi:namedview
     id="namedview1"
     pagecolor="#000000"
     bordercolor="#000000"
     borderopacity="0.25"
     inkscape:showpageshadow="2"
     inkscape:pageopacity="0.0"
     inkscape:pagecheckerboard="0"
     inkscape:deskcolor="#d1d1d1"
     inkscape:document-units="mm"
     inkscape:zoom="0.48774201"
     inkscape:cx="-370.0727"
     inkscape:cy="683.76313"
     inkscape:window-width="2560"
     inkscape:window-height="1334"
     inkscape:window-x="-11"
     inkscape:window-y="-11"
     inkscape:window-maximized="1"
     inkscape:current-layer="layer1" /><defs
     id="defs1" /><g
     inkscape:label="Слой 1"
     inkscape:groupmode="layer"
     id="layer1"><path
       style="fill:#7b5630;stroke:none"
       d="m 84.926784,242.72013 4.17117,3.75405 z"
       id="path188" /><path
       id="path171"
       style="fill:#2b2b2b;stroke:#2b2b2b;stroke-opacity:1;fill-opacity:1"
       d="M 170.30898 19.121313 C 167.02771 19.161399 162.98888 24.507175 161.25941 26.236641 C 152.01734 35.478715 143.49186 45.922435 133.72931 54.600285 C 129.96836 57.943355 120.89708 53.831327 116.21048 53.766227 C 114.94724 53.748727 111.86926 52.206735 110.99684 53.418445 C 109.85906 54.998675 110.78807 60.161064 110.78807 62.108354 L 110.78807 85.050106 L 110.78807 173.89585 C 117.84249 175.19534 126.7366 178.56848 123.57954 187.6609 C 122.61396 190.44181 119.47734 192.18161 118.71317 194.75194 C 121.50976 194.75194 124.49607 193.58898 125.24817 190.58062 C 125.96698 187.70546 124.64605 185.00605 124.76138 182.23797 C 125.05634 175.15897 125.184 164.84799 128.37666 158.46268 C 132.88434 149.4473 142.78585 150.46512 150.41407 146.22725 C 154.15002 144.15174 157.16607 139.51382 160.84186 138.02362 C 160.42077 154.02321 138.10621 154.67665 132.54747 166.80481 C 130.30747 171.69205 131.72986 177.47936 131.22662 182.65552 C 130.63022 188.78987 129.78596 195.40859 126.98605 201.0084 C 124.36876 206.24301 119.70131 210.6284 114.12482 212.40977 C 112.26213 213.00482 105.7686 212.99685 104.73986 214.42567 C 104.11409 215.29481 104.53109 217.49587 104.53109 218.52723 L 104.53109 229.78959 L 104.53109 271.91829 L 104.94863 271.91829 C 108.333 261.20113 114.00959 251.1897 122.46746 243.55413 C 133.28769 233.78585 146.39615 226.94349 156.25351 216.02454 C 163.00905 208.54149 169.00221 199.65225 173.28606 190.58062 C 175.24114 186.44048 175.23215 181.0234 177.52663 177.23259 C 179.74821 184.90729 178.97475 192.39624 178.36069 200.17434 C 181.20128 199.28157 183.02109 194.32931 184.26989 191.8317 C 187.22158 185.92834 189.38177 179.56041 190.73564 173.06179 C 191.30938 170.30789 190.93497 167.39209 191.70871 164.71914 L 199.91183 174.7299 L 203.80513 178.4842 C 203.80513 168.54446 199.81504 157.241 197.40914 147.61735 C 196.57796 144.29267 193.51551 139.24406 194.2114 135.93847 L 203.80513 141.36088 L 198.03494 130.51555 L 182.94904 105.07162 L 191.29168 105.07162 C 190.64986 103.32124 188.18778 103.02314 186.70333 102.01289 C 183.24962 99.662451 180.42126 96.744661 177.52663 93.809261 C 176.5511 92.819981 174.54751 91.486465 174.32889 90.055485 C 173.70197 85.952075 176.52966 79.157577 177.38762 75.039347 C 180.18134 61.629497 182.4977 47.650489 179.1255 34.161739 C 177.95723 29.488651 176.0459 22.792438 172.03446 19.70164 C 171.49829 19.288523 170.91663 19.11389 170.30898 19.121313 z M 167.51587 43.33844 L 166.68182 55.01783 L 166.47304 61.274296 L 162.51049 64.611043 L 162.51049 65.028589 L 167.51587 70.450997 C 165.83951 71.509747 162.83416 73.914167 160.84186 74.135527 C 159.00681 74.339427 152.56898 68.533354 152.56898 66.696704 C 152.56895 60.153794 157.08294 54.607076 160.70285 49.594906 C 162.3154 47.362146 164.58183 43.64731 167.51587 43.33844 z M 152.54469 114.01475 C 152.97196 114.03026 153.37728 114.10087 153.75082 114.24832 C 151.56131 119.79523 142.91325 118.34042 138.31766 119.67073 C 145.78006 128.01115 126.71677 134.747 128.3069 124.67611 L 120.3818 135.52093 C 120.3818 120.68188 134.53397 116.26131 146.6603 115.08238 C 148.43877 114.90947 150.69323 113.94754 152.54469 114.01475 z M 145.82572 123.00748 C 145.82572 134.61011 134.23661 135.52093 125.38718 135.52093 C 125.66718 133.14093 128.62178 134.05358 130.39256 133.78305 C 135.3029 133.03285 138.61541 132.49403 142.00219 128.42989 C 143.40566 126.74574 143.55732 123.25271 145.82572 123.00748 z " /><path
       id="path1"
       style="fill:#ff6600;stroke:none"
       d="M 37.792525 18.728573 C 26.268325 33.667305 27.380275 52.655657 30.840495 70.450997 C 31.761595 75.188057 32.71194 79.913487 33.76073 84.633077 C 34.09034 86.116357 35.107134 89.012864 34.803044 90.472514 C 34.522454 91.819364 32.703535 93.133217 31.883325 94.226807 C 29.717955 97.113977 28.058744 100.30593 26.252144 103.40299 C 18.922684 115.96782 9.361167 129.04556 4.005957 142.61197 L 5.674589 140.52631 C 7.671919 140.78912 10.112145 137.44235 11.653035 136.00772 C 16.870715 131.14988 20.862874 125.0578 26.252144 120.50479 C 36.067864 112.21218 45.635245 115.07823 56.979985 117.16804 L 56.979985 116.75101 C 55.510585 116.0163 54.938344 115.50371 54.894324 113.83129 C 59.390574 113.83129 64.229315 114.4138 68.659375 115.15214 C 80.261225 117.08579 90.94509 126.40361 89.51495 139.27522 C 89.00076 143.90308 85.400189 148.16913 84.926599 153.04027 C 84.066499 161.88674 84.926599 171.25856 84.926599 180.15283 L 85.344145 180.15283 C 89.580815 174.1901 96.966084 173.47882 103.69703 173.47882 L 103.69703 88.803882 L 103.69703 64.194014 L 103.28 53.349198 C 97.637005 53.943228 91.901082 53.805435 86.178202 54.600285 C 83.302512 54.999685 79.412563 56.697918 76.584473 55.990898 C 73.090353 55.117358 69.374013 49.336477 66.851733 46.814197 C 60.260203 40.222667 53.621258 33.48327 47.317008 26.65367 C 44.731888 23.853127 40.881003 21.59788 38.626583 18.728573 L 37.792525 18.728573 z M 39.878186 32.56287 C 41.390816 32.65055 42.589556 34.300654 43.562716 35.273816 C 46.420336 38.131437 49.372066 41.307836 51.696586 44.589526 C 54.912846 49.130156 58.698477 53.134948 60.873287 58.354578 C 61.537837 59.949498 62.674121 61.981916 61.776591 63.776986 C 59.979461 67.371286 54.148758 69.759499 51.140548 72.258639 C 48.551128 74.409849 46.093724 79.090687 42.797904 80.044727 C 41.236544 77.572567 40.862435 74.527013 40.156205 71.702083 C 37.797075 62.265603 35.987443 53.997838 36.123893 44.172498 C 36.151493 42.185088 37.434466 32.421217 39.878186 32.56287 z " /><path
       style="fill:#ff6600;stroke:none"
       d="m 80.890251,239.46032 0.813479,0.66721 7.37538,6.20794 -4.986556,-5.28381 -1.945235,-2.00833"
       id="path187" /><path
       style="fill:#7b5630;stroke:none"
       d="m 75.750214,233.96067 -0.41711,0.41712 0.41711,-0.41712"
       id="path186" /><path
       style="fill:#7b5630;stroke:none"
       d="m 75.750214,232.70932 -0.41711,0.41712 0.41711,-0.41712"
       id="path185" /><path
       style="fill:#2b2b2b;stroke:none;fill-opacity:1"
       d="m 89.515074,203.09403 c 2.86592,4.55937 10.536046,1.12948 14.599086,0.90377 2.43478,-0.13527 4.95217,1.18182 7.5081,1.18182 2.00819,0 5.79679,0.56406 6.67387,-1.66847 l -7.09099,-0.55615 -6.67386,-2.78078 -8.342336,3.1979 -6.67387,-0.27809"
       id="path184" /><path
       style="fill:#2b2b2b;stroke:none;fill-opacity:1"
       d="m 84.092554,186.82648 c 0,4.40412 0.62211,7.92522 5.83963,7.92522 l -5.83963,-7.92522"
       id="path183" /><path
       style="fill:#2b2b2b;stroke:none;fill-opacity:1"
       d="m 97.857404,178.62319 c -1.25127,0.24331 -3.14098,-0.0401 -4.17117,0.7647 -3.89697,3.04452 -1.91997,9.43553 0.83424,12.44399 3.2616,3.56268 8.617136,5.14908 13.347736,4.03214 5.70427,-1.34685 14.28887,-11.50371 7.09098,-16.4066 -3.31475,-2.25786 -13.25705,-1.58183 -17.101786,-0.83423"
       id="path182" /><path
       style="fill:#7b5630;stroke:none"
       d="m 34.872774,153.45714 -0.41711,0.41712 0.41711,-0.41712"
       id="path181" /><path
       style="fill:#ff6600;stroke:none"
       d="m 35.289894,148.86886 c -1.41899,7.70319 -3.69571,15.37787 -2.91982,23.35853 1.69784,17.46364 10.2909,33.37141 22.66334,45.74382 5.60732,5.60732 12.075259,10.32671 18.2141,15.28948 8.30365,6.71285 3.049649,2.40972 6.151946,4.96128 l 1.566747,1.30531 1.343825,-0.31154 -0.739298,-0.78665 c -2.00341,-2.16482 0.591098,0.57162 -6.112917,-6.50605 -7.061733,-8.45137 -2.969384,-3.63567 -3.948293,-4.85681 -3.134259,-3.90982 -4.7918,-6.09692 -7.02146,-9.37311 -7.73545,-11.36633 -13.35428,-23.15559 -15.85043,-36.70627 h -0.41712 l -0.41712,13.34773 c -2.93639,-0.92287 -4.90257,-6.50487 -5.97867,-9.17657 -3.3631,-8.34971 -5.66432,-17.3245 -6.53483,-26.27835 -0.22614,-2.32606 1.10683,-8.48892 0,-10.0108"
       id="path180" /><path
       id="path177"
       style="fill:#2b2b2b;stroke:none;fill-opacity:1"
       d="M 63.236967 119.2537 C 63.736117 125.57627 68.406832 131.44084 74.498812 132.87923 C 76.862692 133.43736 79.711131 132.77765 82.006881 133.57479 C 83.863811 134.21957 84.696441 136.22289 86.595231 136.77253 C 85.668531 125.03425 73.641137 119.52748 63.236967 119.2537 z M 72.337187 121.56209 C 73.787324 121.62684 75.254676 122.45411 75.332869 123.84205 C 75.414069 125.2842 74.309612 126.12943 74.498812 127.59583 C 71.482512 128.86587 67.189891 125.17197 70.049471 122.31243 C 70.603219 121.75869 71.467104 121.52324 72.337187 121.56209 z " /><path
       style="fill:#7b5630;stroke:none"
       d="m 63.653834,44.172551 -0.41712,0.41712 0.41712,-0.41712"
       id="path174" /><path
       style="fill:#ff6600;stroke:none"
       d="m 43.632234,50.429301 1.66846,17.10179 c 1.99423,-0.64332 6.2882,-3.24154 6.95196,-5.42252 0.39166,-1.28686 -0.91181,-2.68748 -1.45991,-3.75405 -1.37302,-2.67182 -3.82824,-7.56495 -7.16051,-7.92522"
       id="path175" /></g></svg>
